<?xml version="1.0" encoding="UTF-8" standalone="no"?><svg xmlns="http://www.w3.org/2000/svg" xmlns:xlink="http://www.w3.org/1999/xlink" contentScriptType="application/ecmascript" contentStyleType="text/css" height="2426px" preserveAspectRatio="none" style="width:1171px;height:2426px;" version="1.1" viewBox="0 0 1171 2426" width="1171px" zoomAndPan="magnify"><defs><filter height="300%" id="fd1rna97dbsly" width="300%" x="-1" y="-1"><feGaussianBlur result="blurOut" stdDeviation="2.0"/><feColorMatrix in="blurOut" result="blurOut2" type="matrix" values="0 0 0 0 0 0 0 0 0 0 0 0 0 0 0 0 0 0 .4 0"/><feOffset dx="4.0" dy="4.0" in="blurOut2" result="blurOut3"/><feBlend in="SourceGraphic" in2="blurOut3" mode="normal"/></filter></defs><g><text fill="#000000" font-family="sans-serif" font-size="18" lengthAdjust="spacingAndGlyphs" textLength="307" x="427.5" y="26.708">Sơ đồ tuần tự (Sequence Diagram)</text><text fill="#000000" font-family="sans-serif" font-size="18" lengthAdjust="spacingAndGlyphs" textLength="484" x="339" y="47.6611">Usecase: Tạo hồ sơ đăng ký khám bệnh của bệnh nhân</text><rect fill="#FFFFFF" filter="url(#fd1rna97dbsly)" height="393.8594" style="stroke: #A80036; stroke-width: 1.0;" width="10" x="330" y="231.6016"/><rect fill="#FFFFFF" filter="url(#fd1rna97dbsly)" height="1599.0469" style="stroke: #A80036; stroke-width: 1.0;" width="10" x="330" y="727.9922"/><rect fill="#FFFFFF" filter="url(#fd1rna97dbsly)" height="160.7969" style="stroke: #A80036; stroke-width: 1.0;" width="10" x="610" y="260.7344"/><rect fill="#FFFFFF" filter="url(#fd1rna97dbsly)" height="145.6641" style="stroke: #A80036; stroke-width: 1.0;" width="10" x="610" y="450.6641"/><rect fill="#FFFFFF" filter="url(#fd1rna97dbsly)" height="403.5234" style="stroke: #A80036; stroke-width: 1.0;" width="10" x="610" y="1556.1797"/><rect fill="#FFFFFF" filter="url(#fd1rna97dbsly)" height="102.5313" style="stroke: #A80036; stroke-width: 1.0;" width="10" x="796" y="289.8672"/><rect fill="#FFFFFF" filter="url(#fd1rna97dbsly)" height="87.3984" style="stroke: #A80036; stroke-width: 1.0;" width="10" x="796" y="479.7969"/><rect fill="#FFFFFF" filter="url(#fd1rna97dbsly)" height="330.125" style="stroke: #A80036; stroke-width: 1.0;" width="10" x="796" y="1600.4453"/><rect fill="#FFFFFF" filter="url(#fd1rna97dbsly)" height="29.1328" style="stroke: #A80036; stroke-width: 1.0;" width="10" x="1076" y="334.1328"/><rect fill="#FFFFFF" filter="url(#fd1rna97dbsly)" height="29.1328" style="stroke: #A80036; stroke-width: 1.0;" width="10" x="1076" y="508.9297"/><rect fill="#FFFFFF" filter="url(#fd1rna97dbsly)" height="187.1953" style="stroke: #A80036; stroke-width: 1.0;" width="10" x="1076" y="1690.1094"/><rect fill="#FFFFFF" filter="url(#fd1rna97dbsly)" height="1066.5234" style="stroke: #000000; stroke-width: 2.0;" width="1136" x="13" y="1253.5156"/><rect fill="#FFFFFF" height="1005.125" style="stroke: none; stroke-width: 1.0;" width="1136" x="13" y="1314.9141"/><rect fill="#FFFFFF" filter="url(#fd1rna97dbsly)" height="578.7969" style="stroke: #000000; stroke-width: 2.0;" width="1116" x="23" y="1734.2422"/><rect fill="#FFFFFF" filter="url(#fd1rna97dbsly)" height="267.2656" style="stroke: #000000; stroke-width: 2.0;" width="835" x="33" y="1892.3047"/><rect fill="#FFFFFF" height="117.3359" style="stroke: none; stroke-width: 1.0;" width="835" x="33" y="2042.2344"/><rect fill="#FFFFFF" height="146.4688" style="stroke: none; stroke-width: 1.0;" width="1116" x="23" y="2166.5703"/><line style="stroke: #A80036; stroke-width: 1.0; stroke-dasharray: 5.0,5.0;" x1="84" x2="84" y1="142.2031" y2="2337.0391"/><line style="stroke: #A80036; stroke-width: 1.0; stroke-dasharray: 5.0,5.0;" x1="335" x2="335" y1="142.2031" y2="2337.0391"/><line style="stroke: #A80036; stroke-width: 1.0; stroke-dasharray: 5.0,5.0;" x1="614.5" x2="614.5" y1="142.2031" y2="2337.0391"/><line style="stroke: #A80036; stroke-width: 1.0; stroke-dasharray: 5.0,5.0;" x1="801" x2="801" y1="142.2031" y2="2337.0391"/><line style="stroke: #A80036; stroke-width: 1.0; stroke-dasharray: 5.0,5.0;" x1="1081" x2="1081" y1="142.2031" y2="2337.0391"/><text fill="#000000" font-family="sans-serif" font-size="14" lengthAdjust="spacingAndGlyphs" textLength="76" x="43" y="138.9014">Bệnh nhân</text><ellipse cx="84" cy="68.9063" fill="#FEFECE" filter="url(#fd1rna97dbsly)" rx="8" ry="8" style="stroke: #A80036; stroke-width: 2.0;"/><path d="M84,76.9063 L84,103.9063 M71,84.9063 L97,84.9063 M84,103.9063 L71,118.9063 M84,103.9063 L97,118.9063 " fill="none" filter="url(#fd1rna97dbsly)" style="stroke: #A80036; stroke-width: 2.0;"/><text fill="#000000" font-family="sans-serif" font-size="14" lengthAdjust="spacingAndGlyphs" textLength="76" x="43" y="2349.0342">Bệnh nhân</text><ellipse cx="84" cy="2362.3359" fill="#FEFECE" filter="url(#fd1rna97dbsly)" rx="8" ry="8" style="stroke: #A80036; stroke-width: 2.0;"/><path d="M84,2370.3359 L84,2397.3359 M71,2378.3359 L97,2378.3359 M84,2397.3359 L71,2412.3359 M84,2397.3359 L97,2412.3359 " fill="none" filter="url(#fd1rna97dbsly)" style="stroke: #A80036; stroke-width: 2.0;"/><rect fill="#FEFECE" filter="url(#fd1rna97dbsly)" height="46.5938" style="stroke: #A80036; stroke-width: 1.5;" width="114" x="276" y="90.6094"/><text fill="#000000" font-family="sans-serif" font-size="14" lengthAdjust="spacingAndGlyphs" textLength="100" x="283" y="110.6045">Giao diện Web</text><text fill="#000000" font-family="sans-serif" font-size="14" lengthAdjust="spacingAndGlyphs" textLength="42" x="312" y="126.9014">(View)</text><rect fill="#FEFECE" filter="url(#fd1rna97dbsly)" height="46.5938" style="stroke: #A80036; stroke-width: 1.5;" width="114" x="276" y="2336.0391"/><text fill="#000000" font-family="sans-serif" font-size="14" lengthAdjust="spacingAndGlyphs" textLength="100" x="283" y="2356.0342">Giao diện Web</text><text fill="#000000" font-family="sans-serif" font-size="14" lengthAdjust="spacingAndGlyphs" textLength="42" x="312" y="2372.3311">(View)</text><rect fill="#FEFECE" filter="url(#fd1rna97dbsly)" height="46.5938" style="stroke: #A80036; stroke-width: 1.5;" width="105" x="560.5" y="90.6094"/><text fill="#000000" font-family="sans-serif" font-size="14" lengthAdjust="spacingAndGlyphs" textLength="67" x="579.5" y="110.6045">Controller</text><text fill="#000000" font-family="sans-serif" font-size="14" lengthAdjust="spacingAndGlyphs" textLength="91" x="567.5" y="126.9014">(cBenhNhan)</text><rect fill="#FEFECE" filter="url(#fd1rna97dbsly)" height="46.5938" style="stroke: #A80036; stroke-width: 1.5;" width="105" x="560.5" y="2336.0391"/><text fill="#000000" font-family="sans-serif" font-size="14" lengthAdjust="spacingAndGlyphs" textLength="67" x="579.5" y="2356.0342">Controller</text><text fill="#000000" font-family="sans-serif" font-size="14" lengthAdjust="spacingAndGlyphs" textLength="91" x="567.5" y="2372.3311">(cBenhNhan)</text><rect fill="#FEFECE" filter="url(#fd1rna97dbsly)" height="46.5938" style="stroke: #A80036; stroke-width: 1.5;" width="110" x="744" y="90.6094"/><text fill="#000000" font-family="sans-serif" font-size="14" lengthAdjust="spacingAndGlyphs" textLength="42" x="778" y="110.6045">Model</text><text fill="#000000" font-family="sans-serif" font-size="14" lengthAdjust="spacingAndGlyphs" textLength="96" x="751" y="126.9014">(mBenhNhan)</text><rect fill="#FEFECE" filter="url(#fd1rna97dbsly)" height="46.5938" style="stroke: #A80036; stroke-width: 1.5;" width="110" x="744" y="2336.0391"/><text fill="#000000" font-family="sans-serif" font-size="14" lengthAdjust="spacingAndGlyphs" textLength="42" x="778" y="2356.0342">Model</text><text fill="#000000" font-family="sans-serif" font-size="14" lengthAdjust="spacingAndGlyphs" textLength="96" x="751" y="2372.3311">(mBenhNhan)</text><text fill="#000000" font-family="sans-serif" font-size="14" lengthAdjust="spacingAndGlyphs" textLength="90" x="1033" y="122.6045">Cơ sở dữ liệu</text><text fill="#000000" font-family="sans-serif" font-size="14" lengthAdjust="spacingAndGlyphs" textLength="56" x="1050" y="138.9014">(MySQL)</text><path d="M1063,73.6094 C1063,63.6094 1081,63.6094 1081,63.6094 C1081,63.6094 1099,63.6094 1099,73.6094 L1099,99.6094 C1099,109.6094 1081,109.6094 1081,109.6094 C1081,109.6094 1063,109.6094 1063,99.6094 L1063,73.6094 " fill="#FEFECE" filter="url(#fd1rna97dbsly)" style="stroke: #000000; stroke-width: 1.5;"/><path d="M1063,73.6094 C1063,83.6094 1081,83.6094 1081,83.6094 C1081,83.6094 1099,83.6094 1099,73.6094 " fill="none" style="stroke: #000000; stroke-width: 1.5;"/><text fill="#000000" font-family="sans-serif" font-size="14" lengthAdjust="spacingAndGlyphs" textLength="90" x="1033" y="2349.0342">Cơ sở dữ liệu</text><text fill="#000000" font-family="sans-serif" font-size="14" lengthAdjust="spacingAndGlyphs" textLength="56" x="1050" y="2365.3311">(MySQL)</text><path d="M1063,2378.6328 C1063,2368.6328 1081,2368.6328 1081,2368.6328 C1081,2368.6328 1099,2368.6328 1099,2378.6328 L1099,2404.6328 C1099,2414.6328 1081,2414.6328 1081,2414.6328 C1081,2414.6328 1063,2414.6328 1063,2404.6328 L1063,2378.6328 " fill="#FEFECE" filter="url(#fd1rna97dbsly)" style="stroke: #000000; stroke-width: 1.5;"/><path d="M1063,2378.6328 C1063,2388.6328 1081,2388.6328 1081,2388.6328 C1081,2388.6328 1099,2388.6328 1099,2378.6328 " fill="none" style="stroke: #000000; stroke-width: 1.5;"/><rect fill="#FFFFFF" filter="url(#fd1rna97dbsly)" height="393.8594" style="stroke: #A80036; stroke-width: 1.0;" width="10" x="330" y="231.6016"/><rect fill="#FFFFFF" filter="url(#fd1rna97dbsly)" height="1599.0469" style="stroke: #A80036; stroke-width: 1.0;" width="10" x="330" y="727.9922"/><rect fill="#FFFFFF" filter="url(#fd1rna97dbsly)" height="160.7969" style="stroke: #A80036; stroke-width: 1.0;" width="10" x="610" y="260.7344"/><rect fill="#FFFFFF" filter="url(#fd1rna97dbsly)" height="145.6641" style="stroke: #A80036; stroke-width: 1.0;" width="10" x="610" y="450.6641"/><rect fill="#FFFFFF" filter="url(#fd1rna97dbsly)" height="403.5234" style="stroke: #A80036; stroke-width: 1.0;" width="10" x="610" y="1556.1797"/><rect fill="#FFFFFF" filter="url(#fd1rna97dbsly)" height="102.5313" style="stroke: #A80036; stroke-width: 1.0;" width="10" x="796" y="289.8672"/><rect fill="#FFFFFF" filter="url(#fd1rna97dbsly)" height="87.3984" style="stroke: #A80036; stroke-width: 1.0;" width="10" x="796" y="479.7969"/><rect fill="#FFFFFF" filter="url(#fd1rna97dbsly)" height="330.125" style="stroke: #A80036; stroke-width: 1.0;" width="10" x="796" y="1600.4453"/><rect fill="#FFFFFF" filter="url(#fd1rna97dbsly)" height="29.1328" style="stroke: #A80036; stroke-width: 1.0;" width="10" x="1076" y="334.1328"/><rect fill="#FFFFFF" filter="url(#fd1rna97dbsly)" height="29.1328" style="stroke: #A80036; stroke-width: 1.0;" width="10" x="1076" y="508.9297"/><rect fill="#FFFFFF" filter="url(#fd1rna97dbsly)" height="187.1953" style="stroke: #A80036; stroke-width: 1.0;" width="10" x="1076" y="1690.1094"/><rect fill="#EEEEEE" filter="url(#fd1rna97dbsly)" height="3" style="stroke: #EEEEEE; stroke-width: 1.0;" width="1156" x="3" y="172.7695"/><line style="stroke: #000000; stroke-width: 1.0;" x1="3" x2="1159" y1="172.7695" y2="172.7695"/><line style="stroke: #000000; stroke-width: 1.0;" x1="3" x2="1159" y1="175.7695" y2="175.7695"/><rect fill="#EEEEEE" filter="url(#fd1rna97dbsly)" height="23.1328" style="stroke: #000000; stroke-width: 2.0;" width="201" x="480.5" y="162.2031"/><text fill="#000000" font-family="sans-serif" font-size="13" font-weight="bold" lengthAdjust="spacingAndGlyphs" textLength="182" x="486.5" y="178.27">Truy cập trang tạo hồ sơ</text><polygon fill="#A80036" points="318,227.6016,328,231.6016,318,235.6016,322,231.6016" style="stroke: #A80036; stroke-width: 1.0;"/><line style="stroke: #A80036; stroke-width: 1.0;" x1="84" x2="324" y1="231.6016" y2="231.6016"/><text fill="#000000" font-family="sans-serif" font-size="13" lengthAdjust="spacingAndGlyphs" textLength="156" x="91" y="211.4028">Truy cập trang tạo hồ sơ</text><text fill="#000000" font-family="sans-serif" font-size="13" lengthAdjust="spacingAndGlyphs" textLength="123" x="91" y="226.5356">(/?action=taohoso)</text><polygon fill="#A80036" points="598,256.7344,608,260.7344,598,264.7344,602,260.7344" style="stroke: #A80036; stroke-width: 1.0;"/><line style="stroke: #A80036; stroke-width: 1.0;" x1="340" x2="604" y1="260.7344" y2="260.7344"/><text fill="#000000" font-family="sans-serif" font-size="13" lengthAdjust="spacingAndGlyphs" textLength="221" x="347" y="255.6685">Lấy thông tin tài khoản người dùng</text><polygon fill="#A80036" points="784,285.8672,794,289.8672,784,293.8672,788,289.8672" style="stroke: #A80036; stroke-width: 1.0;"/><line style="stroke: #A80036; stroke-width: 1.0;" x1="620" x2="790" y1="289.8672" y2="289.8672"/><text fill="#000000" font-family="sans-serif" font-size="13" lengthAdjust="spacingAndGlyphs" textLength="157" x="627" y="284.8013">getbenhnhanbytk(email)</text><polygon fill="#A80036" points="1064,330.1328,1074,334.1328,1064,338.1328,1068,334.1328" style="stroke: #A80036; stroke-width: 1.0;"/><line style="stroke: #A80036; stroke-width: 1.0;" x1="806" x2="1070" y1="334.1328" y2="334.1328"/><text fill="#000000" font-family="sans-serif" font-size="13" lengthAdjust="spacingAndGlyphs" textLength="167" x="813" y="313.9341">SELECT * FROM benhnhan</text><text fill="#000000" font-family="sans-serif" font-size="13" lengthAdjust="spacingAndGlyphs" textLength="110" x="813" y="329.0669">WHERE email = ?</text><polygon fill="#A80036" points="817,359.2656,807,363.2656,817,367.2656,813,363.2656" style="stroke: #A80036; stroke-width: 1.0;"/><line style="stroke: #A80036; stroke-width: 1.0; stroke-dasharray: 2.0,2.0;" x1="811" x2="1080" y1="363.2656" y2="363.2656"/><text fill="#000000" font-family="sans-serif" font-size="13" lengthAdjust="spacingAndGlyphs" textLength="163" x="823" y="358.1997">Trả về thông tin tài khoản</text><polygon fill="#A80036" points="631,388.3984,621,392.3984,631,396.3984,627,392.3984" style="stroke: #A80036; stroke-width: 1.0;"/><line style="stroke: #A80036; stroke-width: 1.0; stroke-dasharray: 2.0,2.0;" x1="625" x2="800" y1="392.3984" y2="392.3984"/><text fill="#000000" font-family="sans-serif" font-size="13" lengthAdjust="spacingAndGlyphs" textLength="107" x="637" y="387.3325">Dữ liệu tài khoản</text><polygon fill="#A80036" points="351,417.5313,341,421.5313,351,425.5313,347,421.5313" style="stroke: #A80036; stroke-width: 1.0;"/><line style="stroke: #A80036; stroke-width: 1.0; stroke-dasharray: 2.0,2.0;" x1="345" x2="614" y1="421.5313" y2="421.5313"/><text fill="#000000" font-family="sans-serif" font-size="13" lengthAdjust="spacingAndGlyphs" textLength="134" x="357" y="416.4653">Thông tin người dùng</text><polygon fill="#A80036" points="598,446.6641,608,450.6641,598,454.6641,602,450.6641" style="stroke: #A80036; stroke-width: 1.0;"/><line style="stroke: #A80036; stroke-width: 1.0;" x1="340" x2="604" y1="450.6641" y2="450.6641"/><text fill="#000000" font-family="sans-serif" font-size="13" lengthAdjust="spacingAndGlyphs" textLength="189" x="347" y="445.5981">Lấy danh sách tỉnh/thành phố</text><polygon fill="#A80036" points="784,475.7969,794,479.7969,784,483.7969,788,479.7969" style="stroke: #A80036; stroke-width: 1.0;"/><line style="stroke: #A80036; stroke-width: 1.0;" x1="620" x2="790" y1="479.7969" y2="479.7969"/><text fill="#000000" font-family="sans-serif" font-size="13" lengthAdjust="spacingAndGlyphs" textLength="123" x="627" y="474.731">get_tinhthanhpho()</text><polygon fill="#A80036" points="1064,504.9297,1074,508.9297,1064,512.9297,1068,508.9297" style="stroke: #A80036; stroke-width: 1.0;"/><line style="stroke: #A80036; stroke-width: 1.0;" x1="806" x2="1070" y1="508.9297" y2="508.9297"/><text fill="#000000" font-family="sans-serif" font-size="13" lengthAdjust="spacingAndGlyphs" textLength="188" x="813" y="503.8638">SELECT * FROM tinhthanhpho</text><polygon fill="#A80036" points="817,534.0625,807,538.0625,817,542.0625,813,538.0625" style="stroke: #A80036; stroke-width: 1.0;"/><line style="stroke: #A80036; stroke-width: 1.0; stroke-dasharray: 2.0,2.0;" x1="811" x2="1080" y1="538.0625" y2="538.0625"/><text fill="#000000" font-family="sans-serif" font-size="13" lengthAdjust="spacingAndGlyphs" textLength="137" x="823" y="532.9966">Danh sách tỉnh thành</text><polygon fill="#A80036" points="631,563.1953,621,567.1953,631,571.1953,627,567.1953" style="stroke: #A80036; stroke-width: 1.0;"/><line style="stroke: #A80036; stroke-width: 1.0; stroke-dasharray: 2.0,2.0;" x1="625" x2="800" y1="567.1953" y2="567.1953"/><text fill="#000000" font-family="sans-serif" font-size="13" lengthAdjust="spacingAndGlyphs" textLength="137" x="637" y="562.1294">Danh sách tỉnh thành</text><polygon fill="#A80036" points="351,592.3281,341,596.3281,351,600.3281,347,596.3281" style="stroke: #A80036; stroke-width: 1.0;"/><line style="stroke: #A80036; stroke-width: 1.0; stroke-dasharray: 2.0,2.0;" x1="345" x2="614" y1="596.3281" y2="596.3281"/><text fill="#000000" font-family="sans-serif" font-size="13" lengthAdjust="spacingAndGlyphs" textLength="113" x="357" y="591.2622">Dữ liệu tỉnh thành</text><polygon fill="#A80036" points="95,621.4609,85,625.4609,95,629.4609,91,625.4609" style="stroke: #A80036; stroke-width: 1.0;"/><line style="stroke: #A80036; stroke-width: 1.0; stroke-dasharray: 2.0,2.0;" x1="89" x2="334" y1="625.4609" y2="625.4609"/><text fill="#000000" font-family="sans-serif" font-size="13" lengthAdjust="spacingAndGlyphs" textLength="148" x="101" y="620.395">Hiển thị form tạo hồ sơ</text><rect fill="#EEEEEE" filter="url(#fd1rna97dbsly)" height="3" style="stroke: #EEEEEE; stroke-width: 1.0;" width="1156" x="3" y="654.0273"/><line style="stroke: #000000; stroke-width: 1.0;" x1="3" x2="1159" y1="654.0273" y2="654.0273"/><line style="stroke: #000000; stroke-width: 1.0;" x1="3" x2="1159" y1="657.0273" y2="657.0273"/><rect fill="#EEEEEE" filter="url(#fd1rna97dbsly)" height="23.1328" style="stroke: #000000; stroke-width: 2.0;" width="175" x="493.5" y="643.4609"/><text fill="#000000" font-family="sans-serif" font-size="13" font-weight="bold" lengthAdjust="spacingAndGlyphs" textLength="156" x="499.5" y="659.5278">Nhập thông tin hồ sơ</text><polygon fill="#A80036" points="318,723.9922,328,727.9922,318,731.9922,322,727.9922" style="stroke: #A80036; stroke-width: 1.0;"/><line style="stroke: #A80036; stroke-width: 1.0;" x1="84" x2="324" y1="727.9922" y2="727.9922"/><text fill="#000000" font-family="sans-serif" font-size="13" lengthAdjust="spacingAndGlyphs" textLength="150" x="91" y="692.6606">Nhập thông tin cá nhân</text><text fill="#000000" font-family="sans-serif" font-size="13" lengthAdjust="spacingAndGlyphs" textLength="179" x="91" y="707.7935">(Họ tên, ngày sinh, giới tính,</text><text fill="#000000" font-family="sans-serif" font-size="13" lengthAdjust="spacingAndGlyphs" textLength="98" x="91" y="722.9263">dân tộc, CCCD)</text><polygon fill="#A80036" points="95,753.125,85,757.125,95,761.125,91,757.125" style="stroke: #A80036; stroke-width: 1.0;"/><line style="stroke: #A80036; stroke-width: 1.0; stroke-dasharray: 2.0,2.0;" x1="89" x2="329" y1="757.125" y2="757.125"/><text fill="#000000" font-family="sans-serif" font-size="13" lengthAdjust="spacingAndGlyphs" textLength="92" x="101" y="752.0591">Cập nhật form</text><polygon fill="#A80036" points="318,797.3906,328,801.3906,318,805.3906,322,801.3906" style="stroke: #A80036; stroke-width: 1.0;"/><line style="stroke: #A80036; stroke-width: 1.0;" x1="84" x2="324" y1="801.3906" y2="801.3906"/><text fill="#000000" font-family="sans-serif" font-size="13" lengthAdjust="spacingAndGlyphs" textLength="141" x="91" y="781.1919">Nhập thông tin liên hệ</text><text fill="#000000" font-family="sans-serif" font-size="13" lengthAdjust="spacingAndGlyphs" textLength="135" x="91" y="796.3247">(Email, số điện thoại)</text><polygon fill="#A80036" points="95,826.5234,85,830.5234,95,834.5234,91,830.5234" style="stroke: #A80036; stroke-width: 1.0;"/><line style="stroke: #A80036; stroke-width: 1.0; stroke-dasharray: 2.0,2.0;" x1="89" x2="329" y1="830.5234" y2="830.5234"/><text fill="#000000" font-family="sans-serif" font-size="13" lengthAdjust="spacingAndGlyphs" textLength="92" x="101" y="825.4575">Cập nhật form</text><polygon fill="#A80036" points="318,870.7891,328,874.7891,318,878.7891,322,874.7891" style="stroke: #A80036; stroke-width: 1.0;"/><line style="stroke: #A80036; stroke-width: 1.0;" x1="84" x2="324" y1="874.7891" y2="874.7891"/><text fill="#000000" font-family="sans-serif" font-size="13" lengthAdjust="spacingAndGlyphs" textLength="149" x="91" y="854.5903">Upload giấy tờ tùy thân</text><text fill="#000000" font-family="sans-serif" font-size="13" lengthAdjust="spacingAndGlyphs" textLength="175" x="91" y="869.7231">(CCCD mặt trước, mặt sau)</text><polygon fill="#A80036" points="95,899.9219,85,903.9219,95,907.9219,91,903.9219" style="stroke: #A80036; stroke-width: 1.0;"/><line style="stroke: #A80036; stroke-width: 1.0; stroke-dasharray: 2.0,2.0;" x1="89" x2="329" y1="903.9219" y2="903.9219"/><text fill="#000000" font-family="sans-serif" font-size="13" lengthAdjust="spacingAndGlyphs" textLength="94" x="101" y="898.856">Xem trước ảnh</text><polygon fill="#A80036" points="318,944.1875,328,948.1875,318,952.1875,322,948.1875" style="stroke: #A80036; stroke-width: 1.0;"/><line style="stroke: #A80036; stroke-width: 1.0;" x1="84" x2="324" y1="948.1875" y2="948.1875"/><text fill="#000000" font-family="sans-serif" font-size="13" lengthAdjust="spacingAndGlyphs" textLength="117" x="91" y="927.9888">Nhập tiền sử bệnh</text><text fill="#000000" font-family="sans-serif" font-size="13" lengthAdjust="spacingAndGlyphs" textLength="126" x="91" y="943.1216">(Bản thân, gia đình)</text><polygon fill="#A80036" points="95,973.3203,85,977.3203,95,981.3203,91,977.3203" style="stroke: #A80036; stroke-width: 1.0;"/><line style="stroke: #A80036; stroke-width: 1.0; stroke-dasharray: 2.0,2.0;" x1="89" x2="329" y1="977.3203" y2="977.3203"/><text fill="#000000" font-family="sans-serif" font-size="13" lengthAdjust="spacingAndGlyphs" textLength="92" x="101" y="972.2544">Cập nhật form</text><polygon fill="#A80036" points="318,1017.5859,328,1021.5859,318,1025.5859,322,1021.5859" style="stroke: #A80036; stroke-width: 1.0;"/><line style="stroke: #A80036; stroke-width: 1.0;" x1="84" x2="324" y1="1021.5859" y2="1021.5859"/><text fill="#000000" font-family="sans-serif" font-size="13" lengthAdjust="spacingAndGlyphs" textLength="80" x="91" y="1001.3872">Nhập địa chỉ</text><text fill="#000000" font-family="sans-serif" font-size="13" lengthAdjust="spacingAndGlyphs" textLength="203" x="91" y="1016.52">(Tỉnh/thành, xã/phường, số nhà)</text><polygon fill="#A80036" points="95,1046.7188,85,1050.7188,95,1054.7188,91,1050.7188" style="stroke: #A80036; stroke-width: 1.0;"/><line style="stroke: #A80036; stroke-width: 1.0; stroke-dasharray: 2.0,2.0;" x1="89" x2="329" y1="1050.7188" y2="1050.7188"/><text fill="#000000" font-family="sans-serif" font-size="13" lengthAdjust="spacingAndGlyphs" textLength="92" x="101" y="1045.6528">Cập nhật form</text><polygon fill="#A80036" points="318,1075.8516,328,1079.8516,318,1083.8516,322,1079.8516" style="stroke: #A80036; stroke-width: 1.0;"/><line style="stroke: #A80036; stroke-width: 1.0;" x1="84" x2="324" y1="1079.8516" y2="1079.8516"/><text fill="#000000" font-family="sans-serif" font-size="13" lengthAdjust="spacingAndGlyphs" textLength="192" x="91" y="1074.7856">Xác nhận thông tin người thân</text><polygon fill="#A80036" points="95,1104.9844,85,1108.9844,95,1112.9844,91,1108.9844" style="stroke: #A80036; stroke-width: 1.0;"/><line style="stroke: #A80036; stroke-width: 1.0; stroke-dasharray: 2.0,2.0;" x1="89" x2="329" y1="1108.9844" y2="1108.9844"/><text fill="#000000" font-family="sans-serif" font-size="13" lengthAdjust="spacingAndGlyphs" textLength="206" x="101" y="1103.9185">Hiển thị thông tin người giám hộ</text><rect fill="#EEEEEE" filter="url(#fd1rna97dbsly)" height="3" style="stroke: #EEEEEE; stroke-width: 1.0;" width="1156" x="3" y="1137.5508"/><line style="stroke: #000000; stroke-width: 1.0;" x1="3" x2="1159" y1="1137.5508" y2="1137.5508"/><line style="stroke: #000000; stroke-width: 1.0;" x1="3" x2="1159" y1="1140.5508" y2="1140.5508"/><rect fill="#EEEEEE" filter="url(#fd1rna97dbsly)" height="23.1328" style="stroke: #000000; stroke-width: 2.0;" width="177" x="492.5" y="1126.9844"/><text fill="#000000" font-family="sans-serif" font-size="13" font-weight="bold" lengthAdjust="spacingAndGlyphs" textLength="158" x="498.5" y="1143.0513">Xác thực và lưu hồ sơ</text><polygon fill="#A80036" points="318,1177.25,328,1181.25,318,1185.25,322,1181.25" style="stroke: #A80036; stroke-width: 1.0;"/><line style="stroke: #A80036; stroke-width: 1.0;" x1="84" x2="324" y1="1181.25" y2="1181.25"/><text fill="#000000" font-family="sans-serif" font-size="13" lengthAdjust="spacingAndGlyphs" textLength="124" x="91" y="1176.1841">Nhấn nút "Tạo mới"</text><line style="stroke: #A80036; stroke-width: 1.0;" x1="340" x2="382" y1="1225.5156" y2="1225.5156"/><line style="stroke: #A80036; stroke-width: 1.0;" x1="382" x2="382" y1="1225.5156" y2="1238.5156"/><line style="stroke: #A80036; stroke-width: 1.0;" x1="341" x2="382" y1="1238.5156" y2="1238.5156"/><polygon fill="#A80036" points="351,1234.5156,341,1238.5156,351,1242.5156,347,1238.5156" style="stroke: #A80036; stroke-width: 1.0;"/><text fill="#000000" font-family="sans-serif" font-size="13" lengthAdjust="spacingAndGlyphs" textLength="153" x="347" y="1205.3169">Validate dữ liệu đầu vào</text><text fill="#000000" font-family="sans-serif" font-size="13" lengthAdjust="spacingAndGlyphs" textLength="173" x="347" y="1220.4497">(Email, SĐT, CCCD, họ tên)</text><path d="M13,1253.5156 L77,1253.5156 L77,1260.5156 L67,1270.5156 L13,1270.5156 L13,1253.5156 " fill="#EEEEEE" style="stroke: #000000; stroke-width: 1.0;"/><rect fill="none" height="1066.5234" style="stroke: #000000; stroke-width: 2.0;" width="1136" x="13" y="1253.5156"/><text fill="#000000" font-family="sans-serif" font-size="13" font-weight="bold" lengthAdjust="spacingAndGlyphs" textLength="19" x="28" y="1266.5825">alt</text><text fill="#000000" font-family="sans-serif" font-size="11" font-weight="bold" lengthAdjust="spacingAndGlyphs" textLength="142" x="92" y="1265.7261">[Dữ liệu không hợp lệ]</text><polygon fill="#A80036" points="95,1302.9141,85,1306.9141,95,1310.9141,91,1306.9141" style="stroke: #A80036; stroke-width: 1.0;"/><line style="stroke: #A80036; stroke-width: 1.0; stroke-dasharray: 2.0,2.0;" x1="89" x2="329" y1="1306.9141" y2="1306.9141"/><text fill="#000000" font-family="sans-serif" font-size="13" lengthAdjust="spacingAndGlyphs" textLength="137" x="101" y="1286.7153">Hiển thị thông báo lỗi</text><text fill="#000000" font-family="sans-serif" font-size="13" lengthAdjust="spacingAndGlyphs" textLength="79" x="101" y="1301.8481">(SweetAlert)</text><line style="stroke: #000000; stroke-width: 1.0; stroke-dasharray: 2.0,2.0;" x1="13" x2="1149" y1="1315.9141" y2="1315.9141"/><text fill="#000000" font-family="sans-serif" font-size="11" font-weight="bold" lengthAdjust="spacingAndGlyphs" textLength="99" x="18" y="1326.1245">[Dữ liệu hợp lệ]</text><line style="stroke: #A80036; stroke-width: 1.0;" x1="340" x2="382" y1="1365.9844" y2="1365.9844"/><line style="stroke: #A80036; stroke-width: 1.0;" x1="382" x2="382" y1="1365.9844" y2="1378.9844"/><line style="stroke: #A80036; stroke-width: 1.0;" x1="341" x2="382" y1="1378.9844" y2="1378.9844"/><polygon fill="#A80036" points="351,1374.9844,341,1378.9844,351,1382.9844,347,1378.9844" style="stroke: #A80036; stroke-width: 1.0;"/><text fill="#000000" font-family="sans-serif" font-size="13" lengthAdjust="spacingAndGlyphs" textLength="127" x="347" y="1345.7856">Xử lý upload file ảnh</text><text fill="#000000" font-family="sans-serif" font-size="13" lengthAdjust="spacingAndGlyphs" textLength="141" x="347" y="1360.9185">(CCCD, giấy khai sinh)</text><line style="stroke: #A80036; stroke-width: 1.0;" x1="340" x2="382" y1="1423.25" y2="1423.25"/><line style="stroke: #A80036; stroke-width: 1.0;" x1="382" x2="382" y1="1423.25" y2="1436.25"/><line style="stroke: #A80036; stroke-width: 1.0;" x1="341" x2="382" y1="1436.25" y2="1436.25"/><polygon fill="#A80036" points="351,1432.25,341,1436.25,351,1440.25,347,1436.25" style="stroke: #A80036; stroke-width: 1.0;"/><text fill="#000000" font-family="sans-serif" font-size="13" lengthAdjust="spacingAndGlyphs" textLength="160" x="347" y="1403.0513">Mã hóa dữ liệu nhạy cảm</text><text fill="#000000" font-family="sans-serif" font-size="13" lengthAdjust="spacingAndGlyphs" textLength="124" x="347" y="1418.1841">(Email, SĐT, CCCD)</text><polygon fill="#A80036" points="598,1552.1797,608,1556.1797,598,1560.1797,602,1556.1797" style="stroke: #A80036; stroke-width: 1.0;"/><line style="stroke: #A80036; stroke-width: 1.0;" x1="340" x2="604" y1="1556.1797" y2="1556.1797"/><text fill="#000000" font-family="sans-serif" font-size="13" lengthAdjust="spacingAndGlyphs" textLength="105" x="347" y="1460.3169">insertbenhnhan(</text><text fill="#000000" font-family="sans-serif" font-size="13" lengthAdjust="spacingAndGlyphs" textLength="177" x="347" y="1475.4497">mabenhnhan, email, hoten,</text><text fill="#000000" font-family="sans-serif" font-size="13" lengthAdjust="spacingAndGlyphs" textLength="178" x="347" y="1490.5825">ngaysinh, sdt, dantoc, cccd,</text><text fill="#000000" font-family="sans-serif" font-size="13" lengthAdjust="spacingAndGlyphs" textLength="159" x="347" y="1505.7153">cccd_truoc, giaykhaisinh,</text><text fill="#000000" font-family="sans-serif" font-size="13" lengthAdjust="spacingAndGlyphs" textLength="200" x="347" y="1520.8481">cccd_sau, gioitinh, nghenghiep,</text><text fill="#000000" font-family="sans-serif" font-size="13" lengthAdjust="spacingAndGlyphs" textLength="235" x="347" y="1535.981">tiensucuagiadinh, tiensucuabanthan,</text><text fill="#000000" font-family="sans-serif" font-size="13" lengthAdjust="spacingAndGlyphs" textLength="251" x="347" y="1551.1138">sonha, xa, tinh, manguoidung, quanhe)</text><polygon fill="#A80036" points="784,1596.4453,794,1600.4453,784,1604.4453,788,1600.4453" style="stroke: #A80036; stroke-width: 1.0;"/><line style="stroke: #A80036; stroke-width: 1.0;" x1="620" x2="790" y1="1600.4453" y2="1600.4453"/><text fill="#000000" font-family="sans-serif" font-size="13" lengthAdjust="spacingAndGlyphs" textLength="120" x="627" y="1580.2466">Tạo mã bệnh nhân</text><text fill="#000000" font-family="sans-serif" font-size="13" lengthAdjust="spacingAndGlyphs" textLength="92" x="627" y="1595.3794">(BN_xxxxxxxx)</text><polygon fill="#A80036" points="1064,1686.1094,1074,1690.1094,1064,1694.1094,1068,1690.1094" style="stroke: #A80036; stroke-width: 1.0;"/><line style="stroke: #A80036; stroke-width: 1.0;" x1="806" x2="1070" y1="1690.1094" y2="1690.1094"/><text fill="#000000" font-family="sans-serif" font-size="13" lengthAdjust="spacingAndGlyphs" textLength="150" x="813" y="1624.5122">INSERT INTO nguoidung</text><text fill="#000000" font-family="sans-serif" font-size="13" lengthAdjust="spacingAndGlyphs" textLength="207" x="813" y="1639.645">(manguoidung, hoten, ngaysinh,</text><text fill="#000000" font-family="sans-serif" font-size="13" lengthAdjust="spacingAndGlyphs" textLength="185" x="813" y="1654.7778">gioitinh, cccd, cccd_matruoc,</text><text fill="#000000" font-family="sans-serif" font-size="13" lengthAdjust="spacingAndGlyphs" textLength="169" x="813" y="1669.9106">cccd_matsau, dantoc, sdt,</text><text fill="#000000" font-family="sans-serif" font-size="13" lengthAdjust="spacingAndGlyphs" textLength="179" x="813" y="1685.0435">sonha, maxaphuong, email)</text><polygon fill="#A80036" points="817,1715.2422,807,1719.2422,817,1723.2422,813,1719.2422" style="stroke: #A80036; stroke-width: 1.0;"/><line style="stroke: #A80036; stroke-width: 1.0; stroke-dasharray: 2.0,2.0;" x1="811" x2="1075" y1="1719.2422" y2="1719.2422"/><text fill="#000000" font-family="sans-serif" font-size="13" lengthAdjust="spacingAndGlyphs" textLength="140" x="823" y="1714.1763">Trả về kết quả INSERT</text><path d="M23,1734.2422 L87,1734.2422 L87,1741.2422 L77,1751.2422 L23,1751.2422 L23,1734.2422 " fill="#EEEEEE" style="stroke: #000000; stroke-width: 1.0;"/><rect fill="none" height="578.7969" style="stroke: #000000; stroke-width: 2.0;" width="1116" x="23" y="1734.2422"/><text fill="#000000" font-family="sans-serif" font-size="13" font-weight="bold" lengthAdjust="spacingAndGlyphs" textLength="19" x="38" y="1747.3091">alt</text><text fill="#000000" font-family="sans-serif" font-size="11" font-weight="bold" lengthAdjust="spacingAndGlyphs" textLength="197" x="102" y="1746.4526">[Thêm người dùng thành công]</text><polygon fill="#A80036" points="1064,1844.1719,1074,1848.1719,1064,1852.1719,1068,1848.1719" style="stroke: #A80036; stroke-width: 1.0;"/><line style="stroke: #A80036; stroke-width: 1.0;" x1="806" x2="1070" y1="1848.1719" y2="1848.1719"/><text fill="#000000" font-family="sans-serif" font-size="13" lengthAdjust="spacingAndGlyphs" textLength="147" x="813" y="1767.4419">INSERT INTO benhnhan</text><text fill="#000000" font-family="sans-serif" font-size="13" lengthAdjust="spacingAndGlyphs" textLength="177" x="813" y="1782.5747">(mabenhnhan, nghenghiep,</text><text fill="#000000" font-family="sans-serif" font-size="13" lengthAdjust="spacingAndGlyphs" textLength="162" x="813" y="1797.7075">tiensubenhtatcuagiadinh,</text><text fill="#000000" font-family="sans-serif" font-size="13" lengthAdjust="spacingAndGlyphs" textLength="180" x="813" y="1812.8403">tiensubenhtatcuabenhnhan,</text><text fill="#000000" font-family="sans-serif" font-size="13" lengthAdjust="spacingAndGlyphs" textLength="194" x="813" y="1827.9731">giaykhaisinh, manguoigiamho,</text><text fill="#000000" font-family="sans-serif" font-size="13" lengthAdjust="spacingAndGlyphs" textLength="246" x="813" y="1843.106">moiquanhevoinguoithan, matrangthai)</text><polygon fill="#A80036" points="817,1873.3047,807,1877.3047,817,1881.3047,813,1877.3047" style="stroke: #A80036; stroke-width: 1.0;"/><line style="stroke: #A80036; stroke-width: 1.0; stroke-dasharray: 2.0,2.0;" x1="811" x2="1080" y1="1877.3047" y2="1877.3047"/><text fill="#000000" font-family="sans-serif" font-size="13" lengthAdjust="spacingAndGlyphs" textLength="140" x="823" y="1872.2388">Trả về kết quả INSERT</text><path d="M33,1892.3047 L97,1892.3047 L97,1899.3047 L87,1909.3047 L33,1909.3047 L33,1892.3047 " fill="#EEEEEE" style="stroke: #000000; stroke-width: 1.0;"/><rect fill="none" height="267.2656" style="stroke: #000000; stroke-width: 2.0;" width="835" x="33" y="1892.3047"/><text fill="#000000" font-family="sans-serif" font-size="13" font-weight="bold" lengthAdjust="spacingAndGlyphs" textLength="19" x="48" y="1905.3716">alt</text><text fill="#000000" font-family="sans-serif" font-size="11" font-weight="bold" lengthAdjust="spacingAndGlyphs" textLength="193" x="112" y="1904.5151">[Thêm bệnh nhân thành công]</text><polygon fill="#A80036" points="631,1926.5703,621,1930.5703,631,1934.5703,627,1930.5703" style="stroke: #A80036; stroke-width: 1.0;"/><line style="stroke: #A80036; stroke-width: 1.0; stroke-dasharray: 2.0,2.0;" x1="625" x2="800" y1="1930.5703" y2="1930.5703"/><text fill="#000000" font-family="sans-serif" font-size="13" lengthAdjust="spacingAndGlyphs" textLength="76" x="637" y="1925.5044">Trả về TRUE</text><polygon fill="#A80036" points="351,1955.7031,341,1959.7031,351,1963.7031,347,1959.7031" style="stroke: #A80036; stroke-width: 1.0;"/><line style="stroke: #A80036; stroke-width: 1.0; stroke-dasharray: 2.0,2.0;" x1="345" x2="614" y1="1959.7031" y2="1959.7031"/><text fill="#000000" font-family="sans-serif" font-size="13" lengthAdjust="spacingAndGlyphs" textLength="138" x="357" y="1954.6372">Tạo hồ sơ thành công</text><polygon fill="#A80036" points="95,2030.2344,85,2034.2344,95,2038.2344,91,2034.2344" style="stroke: #A80036; stroke-width: 1.0;"/><line style="stroke: #A80036; stroke-width: 1.0; stroke-dasharray: 2.0,2.0;" x1="89" x2="329" y1="2034.2344" y2="2034.2344"/><text fill="#000000" font-family="sans-serif" font-size="13" lengthAdjust="spacingAndGlyphs" textLength="195" x="101" y="1983.77">Hiển thị thông báo thành công</text><text fill="#000000" font-family="sans-serif" font-size="13" lengthAdjust="spacingAndGlyphs" textLength="79" x="101" y="1998.9028">(SweetAlert)</text><text fill="#000000" font-family="sans-serif" font-size="13" lengthAdjust="spacingAndGlyphs" textLength="222" x="101" y="2014.0356">và chuyển hướng đến trang cài đặt</text><text fill="#000000" font-family="sans-serif" font-size="13" lengthAdjust="spacingAndGlyphs" textLength="106" x="101" y="2029.1685">(?action=caidat)</text><line style="stroke: #000000; stroke-width: 1.0; stroke-dasharray: 2.0,2.0;" x1="33" x2="868" y1="2043.2344" y2="2043.2344"/><text fill="#000000" font-family="sans-serif" font-size="11" font-weight="bold" lengthAdjust="spacingAndGlyphs" textLength="160" x="38" y="2053.4448">[Lỗi khi thêm bệnh nhân]</text><polygon fill="#A80036" points="626,2074.1719,616,2078.1719,626,2082.1719,622,2078.1719" style="stroke: #A80036; stroke-width: 1.0;"/><line style="stroke: #A80036; stroke-width: 1.0; stroke-dasharray: 2.0,2.0;" x1="620" x2="800" y1="2078.1719" y2="2078.1719"/><text fill="#000000" font-family="sans-serif" font-size="13" lengthAdjust="spacingAndGlyphs" textLength="126" x="632" y="2073.106">Trả về thông báo lỗi</text><polygon fill="#A80036" points="351,2103.3047,341,2107.3047,351,2111.3047,347,2107.3047" style="stroke: #A80036; stroke-width: 1.0;"/><line style="stroke: #A80036; stroke-width: 1.0; stroke-dasharray: 2.0,2.0;" x1="345" x2="614" y1="2107.3047" y2="2107.3047"/><text fill="#000000" font-family="sans-serif" font-size="13" lengthAdjust="spacingAndGlyphs" textLength="85" x="357" y="2102.2388">Thông báo lỗi</text><polygon fill="#A80036" points="95,2147.5703,85,2151.5703,95,2155.5703,91,2151.5703" style="stroke: #A80036; stroke-width: 1.0;"/><line style="stroke: #A80036; stroke-width: 1.0; stroke-dasharray: 2.0,2.0;" x1="89" x2="329" y1="2151.5703" y2="2151.5703"/><text fill="#000000" font-family="sans-serif" font-size="13" lengthAdjust="spacingAndGlyphs" textLength="137" x="101" y="2131.3716">Hiển thị thông báo lỗi</text><text fill="#000000" font-family="sans-serif" font-size="13" lengthAdjust="spacingAndGlyphs" textLength="79" x="101" y="2146.5044">(SweetAlert)</text><line style="stroke: #000000; stroke-width: 1.0; stroke-dasharray: 2.0,2.0;" x1="23" x2="1139" y1="2167.5703" y2="2167.5703"/><text fill="#000000" font-family="sans-serif" font-size="11" font-weight="bold" lengthAdjust="spacingAndGlyphs" textLength="164" x="28" y="2177.7808">[Lỗi khi thêm người dùng]</text><polygon fill="#A80036" points="812,2198.5078,802,2202.5078,812,2206.5078,808,2202.5078" style="stroke: #A80036; stroke-width: 1.0;"/><line style="stroke: #A80036; stroke-width: 1.0; stroke-dasharray: 2.0,2.0;" x1="806" x2="1080" y1="2202.5078" y2="2202.5078"/><text fill="#000000" font-family="sans-serif" font-size="13" lengthAdjust="spacingAndGlyphs" textLength="57" x="818" y="2197.4419">Trả về lỗi</text><polygon fill="#A80036" points="626,2227.6406,616,2231.6406,626,2235.6406,622,2231.6406" style="stroke: #A80036; stroke-width: 1.0;"/><line style="stroke: #A80036; stroke-width: 1.0; stroke-dasharray: 2.0,2.0;" x1="620" x2="800" y1="2231.6406" y2="2231.6406"/><text fill="#000000" font-family="sans-serif" font-size="13" lengthAdjust="spacingAndGlyphs" textLength="126" x="632" y="2226.5747">Trả về thông báo lỗi</text><polygon fill="#A80036" points="351,2256.7734,341,2260.7734,351,2264.7734,347,2260.7734" style="stroke: #A80036; stroke-width: 1.0;"/><line style="stroke: #A80036; stroke-width: 1.0; stroke-dasharray: 2.0,2.0;" x1="345" x2="614" y1="2260.7734" y2="2260.7734"/><text fill="#000000" font-family="sans-serif" font-size="13" lengthAdjust="spacingAndGlyphs" textLength="85" x="357" y="2255.7075">Thông báo lỗi</text><polygon fill="#A80036" points="95,2301.0391,85,2305.0391,95,2309.0391,91,2305.0391" style="stroke: #A80036; stroke-width: 1.0;"/><line style="stroke: #A80036; stroke-width: 1.0; stroke-dasharray: 2.0,2.0;" x1="89" x2="329" y1="2305.0391" y2="2305.0391"/><text fill="#000000" font-family="sans-serif" font-size="13" lengthAdjust="spacingAndGlyphs" textLength="137" x="101" y="2284.8403">Hiển thị thông báo lỗi</text><text fill="#000000" font-family="sans-serif" font-size="13" lengthAdjust="spacingAndGlyphs" textLength="79" x="101" y="2299.9731">(SweetAlert)</text><!--MD5=[8fabf9e955b93a05e75288435b5f2421]
@startuml Sequence_Diagram_TaoHoSo_DangKyKhamBenh

title Sơ đồ tuần tự (Sequence Diagram)\nUsecase: Tạo hồ sơ đăng ký khám bệnh của bệnh nhân

actor "Bệnh nhân" as BenhNhan
participant "Giao diện Web\n(View)" as View
participant "Controller\n(cBenhNhan)" as Controller
participant "Model\n(mBenhNhan)" as Model
database "Cơ sở dữ liệu\n(MySQL)" as Database

== Truy cập trang tạo hồ sơ ==
BenhNhan -> View: Truy cập trang tạo hồ sơ\n(/?action=taohoso)
activate View
View -> Controller: Lấy thông tin tài khoản người dùng
activate Controller
Controller -> Model: getbenhnhanbytk(email)
activate Model
Model -> Database: SELECT * FROM benhnhan\nWHERE email = ?
activate Database
Database - -> Model: Trả về thông tin tài khoản
deactivate Database
Model - -> Controller: Dữ liệu tài khoản
deactivate Model
Controller - -> View: Thông tin người dùng
deactivate Controller

View -> Controller: Lấy danh sách tỉnh/thành phố
activate Controller
Controller -> Model: get_tinhthanhpho()
activate Model
Model -> Database: SELECT * FROM tinhthanhpho
activate Database
Database - -> Model: Danh sách tỉnh thành
deactivate Database
Model - -> Controller: Danh sách tỉnh thành
deactivate Model
Controller - -> View: Dữ liệu tỉnh thành
deactivate Controller

View - -> BenhNhan: Hiển thị form tạo hồ sơ
deactivate View

== Nhập thông tin hồ sơ ==
BenhNhan -> View: Nhập thông tin cá nhân\n(Họ tên, ngày sinh, giới tính,\ndân tộc, CCCD)
activate View
View - -> BenhNhan: Cập nhật form

BenhNhan -> View: Nhập thông tin liên hệ\n(Email, số điện thoại)
View - -> BenhNhan: Cập nhật form

BenhNhan -> View: Upload giấy tờ tùy thân\n(CCCD mặt trước, mặt sau)
View - -> BenhNhan: Xem trước ảnh

BenhNhan -> View: Nhập tiền sử bệnh\n(Bản thân, gia đình)
View - -> BenhNhan: Cập nhật form

BenhNhan -> View: Nhập địa chỉ\n(Tỉnh/thành, xã/phường, số nhà)
View - -> BenhNhan: Cập nhật form

BenhNhan -> View: Xác nhận thông tin người thân
View - -> BenhNhan: Hiển thị thông tin người giám hộ

== Xác thực và lưu hồ sơ ==
BenhNhan -> View: Nhấn nút "Tạo mới"
View -> View: Validate dữ liệu đầu vào\n(Email, SĐT, CCCD, họ tên)
alt Dữ liệu không hợp lệ
    View - -> BenhNhan: Hiển thị thông báo lỗi\n(SweetAlert)
else Dữ liệu hợp lệ
    View -> View: Xử lý upload file ảnh\n(CCCD, giấy khai sinh)
    View -> View: Mã hóa dữ liệu nhạy cảm\n(Email, SĐT, CCCD)
    
    View -> Controller: insertbenhnhan(\nmabenhnhan, email, hoten,\nngaysinh, sdt, dantoc, cccd,\ncccd_truoc, giaykhaisinh,\ncccd_sau, gioitinh, nghenghiep,\ntiensucuagiadinh, tiensucuabanthan,\nsonha, xa, tinh, manguoidung, quanhe)
    activate Controller
    
    Controller -> Model: Tạo mã bệnh nhân\n(BN_xxxxxxxx)
    activate Model
    
    Model -> Database: INSERT INTO nguoidung\n(manguoidung, hoten, ngaysinh,\ngioitinh, cccd, cccd_matruoc,\ncccd_matsau, dantoc, sdt,\nsonha, maxaphuong, email)
    activate Database
    Database - -> Model: Trả về kết quả INSERT
    
    alt Thêm người dùng thành công
        Model -> Database: INSERT INTO benhnhan\n(mabenhnhan, nghenghiep,\ntiensubenhtatcuagiadinh,\ntiensubenhtatcuabenhnhan,\ngiaykhaisinh, manguoigiamho,\nmoiquanhevoinguoithan, matrangthai)
        Database - -> Model: Trả về kết quả INSERT
        deactivate Database
        
        alt Thêm bệnh nhân thành công
            Model - -> Controller: Trả về TRUE
            deactivate Model
            Controller - -> View: Tạo hồ sơ thành công
            deactivate Controller
            View - -> BenhNhan: Hiển thị thông báo thành công\n(SweetAlert)\nvà chuyển hướng đến trang cài đặt\n(?action=caidat)
        else Lỗi khi thêm bệnh nhân
            Model - -> Controller: Trả về thông báo lỗi
            deactivate Model
            Controller - -> View: Thông báo lỗi
            deactivate Controller
            View - -> BenhNhan: Hiển thị thông báo lỗi\n(SweetAlert)
        end
    else Lỗi khi thêm người dùng
        Database - -> Model: Trả về lỗi
        deactivate Database
        Model - -> Controller: Trả về thông báo lỗi
        deactivate Model
        Controller - -> View: Thông báo lỗi
        deactivate Controller
        View - -> BenhNhan: Hiển thị thông báo lỗi\n(SweetAlert)
    end
end
deactivate View

@enduml

PlantUML version 1.2020.02(Sun Mar 01 10:22:07 UTC 2020)
(GPL source distribution)
Java Runtime: OpenJDK Runtime Environment
JVM: OpenJDK 64-Bit Server VM
Java Version: 17.0.17+10
Operating System: Linux
Default Encoding: UTF-8
Language: en
Country: null
--></g></svg>